<svg xmlns="http://www.w3.org/2000/svg" xmlns:xlink="http://www.w3.org/1999/xlink" width="191" height="30" viewBox="0 0 191 30">
  <defs>
    <clipPath id="clip-path">
      <rect id="사각형_1" data-name="사각형 1" width="191" height="30" transform="translate(0 0)" fill="none"/>
    </clipPath>
  </defs>
  <g id="logo" transform="translate(0 0)">
    <path id="패스_1" data-name="패스 1" d="M158.1,22.884,157.722.892h6.76V28.618h-9.72L148.024,5.873h-.15l.376,22.745h-6.715V.892h10.136l6.271,21.992Z" fill="#003e92"/>
    <path id="패스_2" data-name="패스 2" d="M35.277,3.49,31.548,28.907H24.166L29.225.891H41.37L46.4,28.907H39.067L35.427,3.49Z" fill="#003e92"/>
    <path id="패스_3" data-name="패스 3" d="M67.1,22.314,70.471.891H81.6l.6,28.016H75.375L75.2,3.725l-.147,0L70.493,28.907H63.564L59.006,3.725h-.152l-.172,25.183H51.85l.6-28.016H63.585l3.366,21.422Z" fill="#003e92"/>
    <g id="그룹_2" data-name="그룹 2">
      <g id="그룹_1" data-name="그룹 1" clip-path="url(#clip-path)">
        <path id="패스_4" data-name="패스 4" d="M12.679,21a3.775,3.775,0,0,1,.056,2.076,2.374,2.374,0,0,1-2.661,1.88,2.469,2.469,0,0,1-2.746-2.539l-.005-2.713H.005L0,21.866C0,28.115,4.794,30,9.921,30c4.94,0,9-1.73,9.65-6.4a14.021,14.021,0,0,0-.029-4.59C18.39,13.134,8.03,11.385,7.262,8.106a3.623,3.623,0,0,1-.032-1.47,2.266,2.266,0,0,1,2.494-1.88,2.353,2.353,0,0,1,2.534,2.538V9.026h6.814V7.056c0-6.1-5.34-7.056-9.2-7.056C5.018,0,1.049,1.648.326,6.218A9.825,9.825,0,0,0,.391,10C1.571,15.72,11.272,17.377,12.679,21" fill="#003e92"/>
        <path id="패스_5" data-name="패스 5" d="M101.425,20.948A3.729,3.729,0,0,1,101.479,23a2.347,2.347,0,0,1-2.635,1.859,2.439,2.439,0,0,1-2.715-2.511l-.006-2.688H88.877l-.005,2.14c0,6.186,4.747,8.054,9.824,8.054,4.889,0,8.909-1.711,9.552-6.344a13.773,13.773,0,0,0-.03-4.543c-1.138-5.812-11.395-7.542-12.156-10.79a3.6,3.6,0,0,1-.03-1.453A2.243,2.243,0,0,1,98.5,4.859a2.331,2.331,0,0,1,2.51,2.518V9.089h6.748V7.139c0-6.04-5.287-6.983-9.117-6.983-4.8,0-8.729,1.629-9.446,6.155a9.776,9.776,0,0,0,.066,3.74c1.17,5.668,10.773,7.308,12.166,10.9" fill="#003e92"/>
        <path id="패스_6" data-name="패스 6" d="M124.339,24.711a2.472,2.472,0,0,0,2.62-2.032,5.78,5.78,0,0,0,.063-1.067V.887h6.907V20.976c.012.516-.042,1.567-.066,1.843-.478,5.225-4.5,6.922-9.524,6.922s-9.045-1.7-9.523-6.922c-.024-.276-.077-1.327-.064-1.843V.887h6.9V21.612a5.5,5.5,0,0,0,.066,1.067,2.468,2.468,0,0,0,2.616,2.032" fill="#003e92"/>
        <path id="패스_7" data-name="패스 7" d="M181.274,24.422a2.569,2.569,0,0,0,2.79-2.035,6.193,6.193,0,0,0,.066-1.065V17.259h-2.8V13.174H191v7.51c0,.525-.013.909-.1,1.843-.452,5.1-4.759,6.92-9.6,6.92s-9.148-1.819-9.6-6.92a18.2,18.2,0,0,1-.1-1.843V8.9c0-.5.06-1.375.117-1.844C172.333,1.814,176.461.13,181.3.13s9.078,1.669,9.583,6.922c.086.891.057,1.844.06,1.844v.932h-6.883V8.259a6.538,6.538,0,0,0-.088-1.069,2.5,2.5,0,0,0-2.726-2.032,2.542,2.542,0,0,0-2.72,2.032,6.94,6.94,0,0,0-.109,1.328v12.8a6.265,6.265,0,0,0,.064,1.065,2.57,2.57,0,0,0,2.788,2.035" fill="#003e92"/>
      </g>
    </g>
  </g>
</svg>
