<svg xmlns="http://www.w3.org/2000/svg" width="196.524" height="30.645" viewBox="0 0 196.524 30.645">
  <path id="Color_Overlay" data-name="Color Overlay" d="M2065.176,10806.335l.005-2.2h7.529l.005,2.769a2.534,2.534,0,0,0,2.825,2.595,2.439,2.439,0,0,0,2.739-1.922,3.833,3.833,0,0,0-.057-2.119c-1.449-3.7-11.429-5.4-12.645-11.242a9.975,9.975,0,0,1-.065-3.859c.744-4.668,4.826-6.351,9.817-6.351,3.976,0,9.469.974,9.469,7.205v2.015h-7.01v-1.77a2.411,2.411,0,0,0-2.605-2.593,2.327,2.327,0,0,0-2.568,1.919,3.685,3.685,0,0,0,.032,1.5c.79,3.35,11.451,5.135,12.634,11.134a14.12,14.12,0,0,1,.03,4.687c-.667,4.774-4.845,6.544-9.928,6.544C2070.11,10814.646,2065.176,10812.719,2065.176,10806.335Zm91.441-.065.005-2.185h7.456l.008,2.744a2.5,2.5,0,0,0,2.793,2.564,2.413,2.413,0,0,0,2.711-1.9,3.8,3.8,0,0,0-.057-2.1c-1.433-3.667-11.312-5.344-12.518-11.133a9.936,9.936,0,0,1-.068-3.819c.738-4.622,4.782-6.288,9.719-6.288,3.941,0,9.38.966,9.38,7.133v1.994H2169.1v-1.75a2.388,2.388,0,0,0-2.581-2.57,2.306,2.306,0,0,0-2.54,1.905,3.686,3.686,0,0,0,.032,1.484c.784,3.319,11.337,5.086,12.507,11.022a13.979,13.979,0,0,1,.033,4.641c-.662,4.733-4.8,6.481-9.828,6.481C2161.5,10814.5,2156.617,10812.591,2156.617,10806.27Zm26.693,1.04c-.024-.282-.079-1.357-.065-1.884V10784.9h7.106v21.173a5.534,5.534,0,0,0,.068,1.088,2.785,2.785,0,0,0,5.388,0,5.778,5.778,0,0,0,.065-1.088V10784.9h7.105v20.521c.014.526-.043,1.6-.068,1.884-.491,5.336-4.633,7.07-9.8,7.07S2183.8,10812.646,2183.311,10807.31Zm58.533-.3a18.631,18.631,0,0,1-.1-1.884l0-12.04c0-.51.062-1.405.119-1.883.627-5.35,4.875-7.073,9.858-7.073s9.339,1.707,9.86,7.073c.087.909.06,1.883.063,1.883v.953h-7.084v-1.6a6.657,6.657,0,0,0-.09-1.091,2.57,2.57,0,0,0-2.8-2.076,2.61,2.61,0,0,0-2.8,2.076,6.976,6.976,0,0,0-.114,1.357v13.076a6.387,6.387,0,0,0,.068,1.089,3.019,3.019,0,0,0,5.738,0,6.124,6.124,0,0,0,.068-1.089v-4.149h-2.88v-4.172h9.95v7.67c-.005.538-.014.929-.1,1.884-.467,5.211-4.9,7.07-9.877,7.07S2242.31,10812.222,2241.843,10807.011Zm-99.114,6.517-.179-25.722-.149,0-4.693,25.719h-7.13l-4.69-25.722h-.155l-.179,25.722h-7.03l.622-28.617H2130.6l3.463,21.884h.157l3.463-21.884h11.453l.619,28.617Zm-37.357,0-3.743-25.963h-.155l-3.838,25.963h-7.594l5.2-28.617h12.5l5.181,28.617Zm119.041-.3-6.932-23.232h-.155l.385,23.232H2210.8v-28.319h10.428l6.451,22.463h.16l-.385-22.463h6.956v28.319Z" transform="translate(-2065.176 -10784.001)" fill="#fff"/>
</svg>
