<svg xmlns="http://www.w3.org/2000/svg" xmlns:xlink="http://www.w3.org/1999/xlink" width="184.55" height="57.462" viewBox="0 0 184.55 57.462">
  <defs>
    <clipPath id="clip-path">
      <rect id="사각형_148" data-name="사각형 148" width="184.549" height="57.462" fill="none"/>
    </clipPath>
    <clipPath id="clip-path-3">
      <rect id="사각형_141" data-name="사각형 141" width="15.21" height="11.56" transform="translate(30.462)" fill="none"/>
    </clipPath>
    <clipPath id="clip-path-4">
      <rect id="사각형_142" data-name="사각형 142" width="15.21" height="11.56" transform="translate(30.462 19.154)" fill="none"/>
    </clipPath>
    <clipPath id="clip-path-5">
      <rect id="사각형_143" data-name="사각형 143" width="15.21" height="11.56" transform="translate(15.21 11.56)" fill="none"/>
    </clipPath>
    <clipPath id="clip-path-6">
      <rect id="사각형_144" data-name="사각형 144" width="15.21" height="11.56" transform="translate(0 23.12)" fill="none"/>
    </clipPath>
    <clipPath id="clip-path-7">
      <rect id="사각형_145" data-name="사각형 145" width="15.21" height="11.56" transform="translate(15.21 30.714)" fill="none"/>
    </clipPath>
    <clipPath id="clip-path-8">
      <rect id="사각형_146" data-name="사각형 146" width="15.21" height="11.56" transform="translate(30.462 38.308)" fill="none"/>
    </clipPath>
  </defs>
  <g id="Vector_Smart_Object" data-name="Vector Smart Object" opacity="0.451">
    <g id="그룹_153" data-name="그룹 153">
      <g id="그룹_152" data-name="그룹 152" clip-path="url(#clip-path)">
        <g id="그룹_151" data-name="그룹 151">
          <g id="그룹_150" data-name="그룹 150" clip-path="url(#clip-path)">
            <path id="패스_767" data-name="패스 767" d="M59.118,25.946A4.588,4.588,0,0,1,57.4,24.554l1.387-1.688a3.1,3.1,0,0,0,2.605,1.477c1.345,0,2.017-.8,2.059-2.4V15.146H58.782V13.121h7.1v8.733a4.762,4.762,0,0,1-1.134,3.46,4.426,4.426,0,0,1-3.277,1.139,5.482,5.482,0,0,1-2.353-.506" fill="#fff"/>
            <path id="패스_768" data-name="패스 768" d="M77.437,23.2H70.883l-1.3,3.038H67.059l5.882-13.121h2.395l5.924,13.121H78.7Zm-.8-1.9L74.16,15.568l-2.437,5.738Z" fill="#fff"/>
            <path id="패스_769" data-name="패스 769" d="M63.866,39.531l-2.059,2.152v3.375H59.37V31.9h2.437v6.75l6.471-6.75h2.773l-5.5,5.864,5.84,7.257h-2.9Z" fill="#fff"/>
            <path id="패스_770" data-name="패스 770" d="M74.118,44.51A4.895,4.895,0,0,1,72.227,42.7a5.442,5.442,0,0,1,0-5.316,4.895,4.895,0,0,1,1.891-1.814,5.945,5.945,0,0,1,5.462,0,4.895,4.895,0,0,1,1.891,1.814,5.442,5.442,0,0,1,0,5.316A4.895,4.895,0,0,1,79.58,44.51a6.21,6.21,0,0,1-5.462,0m4.874-2.236a3.476,3.476,0,0,0,0-4.556,2.874,2.874,0,0,0-2.143-.844,2.939,2.939,0,0,0-2.143.844,3.577,3.577,0,0,0,0,4.556,2.874,2.874,0,0,0,2.143.844,2.723,2.723,0,0,0,2.143-.844" fill="#fff"/>
            <path id="패스_771" data-name="패스 771" d="M90.168,34.891v2.236a2.386,2.386,0,0,0-.546-.042,2.9,2.9,0,0,0-2.143.8,3.071,3.071,0,0,0-.756,2.278v4.852H84.37v-10H86.6v1.477a3.992,3.992,0,0,1,3.571-1.6" fill="#fff"/>
            <path id="패스_772" data-name="패스 772" d="M101.429,40.755H93.614a2.737,2.737,0,0,0,1.092,1.772,3.29,3.29,0,0,0,2.143.633,3.7,3.7,0,0,0,2.731-1.1l1.261,1.434a4.043,4.043,0,0,1-1.681,1.223,6.59,6.59,0,0,1-5.21-.253,5.008,5.008,0,0,1-1.933-1.814A4.917,4.917,0,0,1,91.345,40a5.164,5.164,0,0,1,.672-2.616,4.784,4.784,0,0,1,1.849-1.814,5.264,5.264,0,0,1,2.647-.675,5.53,5.53,0,0,1,2.605.633,4.677,4.677,0,0,1,1.807,1.814,6.063,6.063,0,0,1,.63,2.7,1.825,1.825,0,0,0-.126.717m-6.891-3.333a2.92,2.92,0,0,0-.924,1.772h5.672a2.92,2.92,0,0,0-.924-1.772,2.684,2.684,0,0,0-1.891-.675,2.989,2.989,0,0,0-1.933.675" fill="#fff"/>
            <path id="패스_773" data-name="패스 773" d="M110.631,35.945a4.062,4.062,0,0,1,1.176,3.206v5.864h-2.185V43.793a2.6,2.6,0,0,1-1.218,1.013,4.259,4.259,0,0,1-1.933.338,5.3,5.3,0,0,1-1.975-.38,3.152,3.152,0,0,1-1.3-1.055,2.945,2.945,0,0,1-.462-1.561A2.531,2.531,0,0,1,103.74,40a4.955,4.955,0,0,1,3.151-.8h2.563v-.169a1.962,1.962,0,0,0-.63-1.6,2.476,2.476,0,0,0-1.849-.548,5.323,5.323,0,0,0-1.639.253,4.345,4.345,0,0,0-1.387.717l-.924-1.73a6.574,6.574,0,0,1,1.891-.928,8.809,8.809,0,0,1,2.353-.338,5.1,5.1,0,0,1,3.361,1.1m-2.143,7.088a2.129,2.129,0,0,0,.966-1.139V40.755h-2.395c-1.345,0-2.017.464-2.017,1.35a1.153,1.153,0,0,0,.5,1.013,2.382,2.382,0,0,0,1.387.38,3.341,3.341,0,0,0,1.555-.464" fill="#fff"/>
            <path id="패스_774" data-name="패스 774" d="M142.522,26.917v-3.46l-1.681,2.869h-.294l-1.681-2.869v3.417h-.63V22.192h.546l1.975,3.333,1.933-3.333h.546v4.725Z" fill="#fff"/>
            <path id="패스_775" data-name="패스 775" d="M147.69,25.356h-2.9a1.07,1.07,0,0,0,.42.759,1.315,1.315,0,0,0,.882.3,1.455,1.455,0,0,0,1.05-.422l.378.422a1.894,1.894,0,0,1-.588.422,1.765,1.765,0,0,1-.8.127,2.878,2.878,0,0,1-1.008-.211,1.734,1.734,0,0,1-.924-1.561,1.812,1.812,0,0,1,.252-.928,1.522,1.522,0,0,1,.63-.633,2.04,2.04,0,0,1,1.849,0,2.255,2.255,0,0,1,.63.633,1.93,1.93,0,0,1,.21.97c-.084,0-.084.042-.084.127m-2.521-1.223a1.311,1.311,0,0,0-.378.759h2.269a1.311,1.311,0,0,0-.378-.759,1.256,1.256,0,0,0-1.513,0" fill="#fff"/>
            <path id="패스_776" data-name="패스 776" d="M154.118,23.71a1.5,1.5,0,0,1,.378,1.181v2.067h-.63V24.976a1.393,1.393,0,0,0-.252-.8.8.8,0,0,0-.672-.253,1.106,1.106,0,0,0-.8.3,1.328,1.328,0,0,0-.294.886v1.856h-.63V24.976a1.393,1.393,0,0,0-.252-.8.8.8,0,0,0-.672-.253,1.106,1.106,0,0,0-.8.3,1.328,1.328,0,0,0-.294.886v1.856h-.63V23.373h.63v.548a1.236,1.236,0,0,1,.5-.422,1.354,1.354,0,0,1,.714-.127,1.642,1.642,0,0,1,.756.169,1.451,1.451,0,0,1,.5.506,1.576,1.576,0,0,1,.546-.506,1.814,1.814,0,0,1,.8-.169,1.279,1.279,0,0,1,1.092.338" fill="#fff"/>
            <path id="패스_777" data-name="패스 777" d="M158.53,23.542a1.813,1.813,0,0,1,.63.633,1.929,1.929,0,0,1,.252.928,1.966,1.966,0,0,1-.252.97,1.813,1.813,0,0,1-.63.633,1.434,1.434,0,0,1-.924.211,1.376,1.376,0,0,1-.714-.169,1.163,1.163,0,0,1-.546-.464v.548h-.63V21.939h.63v1.983a1.482,1.482,0,0,1,1.261-.548,1.8,1.8,0,0,1,.924.169m-.378,2.7a1.121,1.121,0,0,0,.42-.464,1.242,1.242,0,0,0,.168-.675,1.34,1.34,0,0,0-.168-.675,1.2,1.2,0,0,0-1.05-.591,1.182,1.182,0,0,0-.63.169,1.015,1.015,0,0,0-.42.422,1.775,1.775,0,0,0-.168.675,1.34,1.34,0,0,0,.168.675,1.457,1.457,0,0,0,.42.464,1.388,1.388,0,0,0,.63.169,1.01,1.01,0,0,0,.63-.169" fill="#fff"/>
            <path id="패스_778" data-name="패스 778" d="M163.488,25.356h-2.9a1.07,1.07,0,0,0,.42.759,1.315,1.315,0,0,0,.882.3,1.455,1.455,0,0,0,1.05-.422l.336.422a1.894,1.894,0,0,1-.588.422,1.765,1.765,0,0,1-.8.127,2.878,2.878,0,0,1-1.008-.211,1.949,1.949,0,0,1-.672-.633,2.153,2.153,0,0,1,0-1.9,1.813,1.813,0,0,1,.63-.633,1.814,1.814,0,0,1,1.849,0,1.813,1.813,0,0,1,.63.633,1.574,1.574,0,0,1,.21.97c0,.042-.042.084-.042.169m-2.521-1.223a1.311,1.311,0,0,0-.378.759h2.269a1.311,1.311,0,0,0-.378-.759,1.255,1.255,0,0,0-1.513,0" fill="#fff"/>
            <path id="패스_779" data-name="패스 779" d="M165.5,23.5a1.814,1.814,0,0,1,.8-.169v.633h-.168a1.042,1.042,0,0,0-.84.3,1.143,1.143,0,0,0-.294.886v1.772h-.63V23.331H165v.591a1.236,1.236,0,0,1,.5-.422" fill="#fff"/>
            <path id="패스_780" data-name="패스 780" d="M169.538,26.748a1.948,1.948,0,0,1-.672-.633,2.153,2.153,0,0,1,0-1.9,1.625,1.625,0,0,1,.672-.633,2.128,2.128,0,0,1,1.891,0,1.948,1.948,0,0,1,.672.633,1.913,1.913,0,0,1,0,1.9,1.625,1.625,0,0,1-.672.633,2.128,2.128,0,0,1-1.891,0m1.555-.506a.913.913,0,0,0,.42-.464,1.242,1.242,0,0,0,.168-.675,1.34,1.34,0,0,0-.168-.675,1.015,1.015,0,0,0-.42-.422,1.091,1.091,0,0,0-.63-.169,1.182,1.182,0,0,0-.63.169,1.015,1.015,0,0,0-.42.422,1.242,1.242,0,0,0-.168.675,1.34,1.34,0,0,0,.168.675,1.457,1.457,0,0,0,.42.464,1.261,1.261,0,0,0,1.261,0" fill="#fff"/>
            <path id="패스_781" data-name="패스 781" d="M173.95,23.035v.3H175v.548h-1.05v3.038h-.63V23.879h-.63v-.548h.588v-.338a1.219,1.219,0,0,1,.294-.844,1.132,1.132,0,0,1,.882-.3,1.424,1.424,0,0,1,.42.042,1.256,1.256,0,0,1,.336.169l-.21.506a.732.732,0,0,0-.5-.169c-.336,0-.546.211-.546.633" fill="#fff"/>
            <path id="패스_782" data-name="패스 782" d="M137.984,34.933a1.713,1.713,0,0,1-.588-.506l.378-.464a1.164,1.164,0,0,0,.966.548.761.761,0,0,0,.588-.253,1.108,1.108,0,0,0,.21-.717V30.883h-1.681v-.591h2.353V33.5a1.547,1.547,0,0,1-.378,1.181,1.352,1.352,0,0,1-1.092.38,1.593,1.593,0,0,1-.756-.127" fill="#fff"/>
            <path id="패스_783" data-name="패스 783" d="M144.5,33.836h-2.479l-.546,1.181H140.8l2.143-4.725h.672l2.143,4.725h-.714Zm-.21-.506-1.008-2.32-1.05,2.32Z" fill="#fff"/>
            <path id="패스_784" data-name="패스 784" d="M154.875,30.292l-1.555,4.725h-.714l-1.3-3.755L150,35.017h-.714l-1.555-4.725h.672l1.26,3.839,1.3-3.839h.63l1.345,3.881,1.3-3.881Z" fill="#fff"/>
            <path id="패스_785" data-name="패스 785" d="M155.925,34.848a1.727,1.727,0,0,1-.672-.675,1.913,1.913,0,0,1,0-1.9,1.625,1.625,0,0,1,.672-.633,1.956,1.956,0,0,1,2.605.633,1.913,1.913,0,0,1,0,1.9,1.625,1.625,0,0,1-.672.633,1.946,1.946,0,0,1-.966.253,2.484,2.484,0,0,1-.966-.211m1.555-.506a1.121,1.121,0,0,0,.42-.464,1.242,1.242,0,0,0,.168-.675,1.34,1.34,0,0,0-.168-.675,1.015,1.015,0,0,0-.42-.422,1.252,1.252,0,0,0-1.218,0,1.015,1.015,0,0,0-.42.422,1.242,1.242,0,0,0-.168.675,1.34,1.34,0,0,0,.168.675,1.457,1.457,0,0,0,.42.464,1.252,1.252,0,0,0,1.218,0" fill="#fff"/>
            <path id="패스_786" data-name="패스 786" d="M160.715,31.6a1.814,1.814,0,0,1,.8-.169v.633h-.168a1.042,1.042,0,0,0-.84.3,1.143,1.143,0,0,0-.294.886v1.772h-.63V31.473h.63v.591a1.071,1.071,0,0,1,.5-.464" fill="#fff"/>
            <rect id="사각형_139" data-name="사각형 139" width="0.63" height="4.978" transform="translate(162.312 30.039)" fill="#fff"/>
            <path id="패스_787" data-name="패스 787" d="M167.564,30.039v4.978h-.63v-.548a1.464,1.464,0,0,1-.546.464,1.376,1.376,0,0,1-.714.169,1.794,1.794,0,0,1-.924-.253,1.813,1.813,0,0,1-.63-.633,1.966,1.966,0,0,1-.252-.97,2.155,2.155,0,0,1,.21-.928,1.95,1.95,0,0,1,.63-.675,1.794,1.794,0,0,1,.924-.253,1.956,1.956,0,0,1,.714.127,1.734,1.734,0,0,1,.546.422V30h.672Zm-1.218,4.3a.913.913,0,0,0,.42-.464,1.242,1.242,0,0,0,.168-.675,1.34,1.34,0,0,0-.168-.675,1.015,1.015,0,0,0-.42-.422,1.252,1.252,0,0,0-1.218,0,1.015,1.015,0,0,0-.42.422,1.242,1.242,0,0,0-.168.675,1.34,1.34,0,0,0,.168.675,1.458,1.458,0,0,0,.42.464,1.252,1.252,0,0,0,1.218,0" fill="#fff"/>
            <path id="패스_788" data-name="패스 788" d="M174.16,31.473l-1.345,3.544h-.63l-1.008-2.7-1.008,2.7h-.63l-1.3-3.586h.63l1.05,2.869,1.092-2.869h.546l1.05,2.869,1.05-2.869Z" fill="#fff"/>
            <path id="패스_789" data-name="패스 789" d="M174.833,30.63a.409.409,0,0,1,0-.591.453.453,0,0,1,.294-.127.557.557,0,0,1,.336.127.409.409,0,0,1,0,.591.476.476,0,0,1-.336.127.453.453,0,0,1-.294-.127m0,.844h.63v3.544h-.63Z" fill="#fff"/>
            <path id="패스_790" data-name="패스 790" d="M180.043,30.039v4.978h-.63v-.548a1.464,1.464,0,0,1-.546.464,1.376,1.376,0,0,1-.714.169,1.794,1.794,0,0,1-.924-.253,1.813,1.813,0,0,1-.63-.633,1.574,1.574,0,0,1-.21-.97,2.155,2.155,0,0,1,.21-.928,1.95,1.95,0,0,1,.63-.675,1.794,1.794,0,0,1,.924-.253,1.956,1.956,0,0,1,.714.127,1.734,1.734,0,0,1,.546.422V30h.63Zm-1.218,4.3a.913.913,0,0,0,.42-.464,1.242,1.242,0,0,0,.168-.675,1.34,1.34,0,0,0-.168-.675,1.015,1.015,0,0,0-.42-.422,1.252,1.252,0,0,0-1.218,0,1.015,1.015,0,0,0-.42.422,1.242,1.242,0,0,0-.168.675,1.34,1.34,0,0,0,.168.675,1.457,1.457,0,0,0,.42.464,1.252,1.252,0,0,0,1.218,0" fill="#fff"/>
            <path id="패스_791" data-name="패스 791" d="M184.5,33.456h-2.9a1.07,1.07,0,0,0,.42.759,1.315,1.315,0,0,0,.882.3,1.3,1.3,0,0,0,1.008-.422l.378.422a1.894,1.894,0,0,1-.588.422,1.765,1.765,0,0,1-.8.127,2.1,2.1,0,0,1-1.008-.253,1.727,1.727,0,0,1-.672-.675,2.153,2.153,0,0,1,0-1.9,1.626,1.626,0,0,1,.63-.675,1.814,1.814,0,0,1,1.849,0,1.813,1.813,0,0,1,.63.633,1.574,1.574,0,0,1,.21.97,1.117,1.117,0,0,0-.042.3m-2.521-1.223a1.311,1.311,0,0,0-.378.759h2.269a1.311,1.311,0,0,0-.378-.759,1.256,1.256,0,0,0-1.513,0" fill="#fff"/>
            <rect id="사각형_140" data-name="사각형 140" width="0.252" height="36.62" transform="translate(124.58 10.463)" fill="#fff"/>
            <g id="그룹_134" data-name="그룹 134" opacity="0.5" style="isolation: isolate">
              <g id="그룹_133" data-name="그룹 133">
                <g id="그룹_132" data-name="그룹 132" clip-path="url(#clip-path-3)">
                  <path id="패스_792" data-name="패스 792" d="M45.672,0,40,11.518l-9.538.042Z" fill="#fff"/>
                </g>
              </g>
            </g>
            <path id="패스_793" data-name="패스 793" d="M45.714,0,40,11.518l5.714,7.636Z" fill="#fff"/>
            <g id="그룹_137" data-name="그룹 137" opacity="0.5" style="isolation: isolate">
              <g id="그룹_136" data-name="그룹 136">
                <g id="그룹_135" data-name="그룹 135" clip-path="url(#clip-path-4)">
                  <path id="패스_794" data-name="패스 794" d="M45.672,19.154,40,30.672l-9.538.042Z" fill="#fff"/>
                </g>
              </g>
            </g>
            <path id="패스_795" data-name="패스 795" d="M45.714,19.154,40,30.672l5.714,7.636Z" fill="#fff"/>
            <g id="그룹_140" data-name="그룹 140" opacity="0.5" style="isolation: isolate">
              <g id="그룹_139" data-name="그룹 139">
                <g id="그룹_138" data-name="그룹 138" clip-path="url(#clip-path-5)">
                  <path id="패스_796" data-name="패스 796" d="M30.42,11.56,24.706,23.078l-9.5.042Z" fill="#fff"/>
                </g>
              </g>
            </g>
            <path id="패스_797" data-name="패스 797" d="M30.42,11.56,24.748,23.078l5.672,7.636Z" fill="#fff"/>
            <g id="그룹_143" data-name="그룹 143" opacity="0.5" style="isolation: isolate">
              <g id="그룹_142" data-name="그룹 142">
                <g id="그룹_141" data-name="그룹 141" clip-path="url(#clip-path-6)">
                  <path id="패스_798" data-name="패스 798" d="M15.21,23.12,9.5,34.638,0,34.68Z" fill="#fff"/>
                </g>
              </g>
            </g>
            <path id="패스_799" data-name="패스 799" d="M15.21,23.12,9.5,34.638l5.714,7.636Z" fill="#fff"/>
            <g id="그룹_146" data-name="그룹 146" opacity="0.5" style="isolation: isolate">
              <g id="그룹_145" data-name="그룹 145">
                <g id="그룹_144" data-name="그룹 144" clip-path="url(#clip-path-7)">
                  <path id="패스_800" data-name="패스 800" d="M30.42,30.714,24.706,42.232l-9.5.042Z" fill="#fff"/>
                </g>
              </g>
            </g>
            <path id="패스_801" data-name="패스 801" d="M30.42,30.714,24.706,42.232l5.714,7.636Z" fill="#fff"/>
            <g id="그룹_149" data-name="그룹 149" opacity="0.5" style="isolation: isolate">
              <g id="그룹_148" data-name="그룹 148">
                <g id="그룹_147" data-name="그룹 147" clip-path="url(#clip-path-8)">
                  <path id="패스_802" data-name="패스 802" d="M45.672,38.308,39.958,49.826l-9.5.042Z" fill="#fff"/>
                </g>
              </g>
            </g>
            <path id="패스_803" data-name="패스 803" d="M45.672,38.308,40,49.826l5.672,7.636Z" fill="#fff"/>
          </g>
        </g>
      </g>
    </g>
  </g>
</svg>
